<svg id="Capa_1" data-name="Capa 1" xmlns="http://www.w3.org/2000/svg" viewBox="0 0 806.24 806.24"><defs><style>.cls-1{fill:#fcfcfc;}.cls-2{fill:#a0c2fb;}.cls-3{fill:#c0d6fc;}.cls-4{fill:#23286b;}.cls-5{fill:#1d72d7;}.cls-6{fill:#f0b405;}.cls-7{fill:#9fbfee;}.cls-8{fill:#2c7ce6;}.cls-9{fill:#2175db;}.cls-10{fill:#a6c4ef;}.cls-11{fill:#98bbed;}.cls-12{fill:#abc7f0;}.cls-13{fill:#b0caf1;}.cls-14{fill:#2f7fe9;}.cls-15{fill:#202564;}.cls-16{fill:#2779e1;}.cls-17{fill:#1e2360;}.cls-18{fill:#2577df;}.cls-19{fill:#297be3;}.cls-20{fill:#febdb5;}.cls-21{fill:#2477df;}.cls-22{fill:#1b205c;}.cls-23{fill:#a5c3ef;}.cls-24{fill:#e5a905;}.cls-25{fill:#3f8af8;}.cls-26{fill:#3180eb;}.cls-27{fill:#e9ad05;}.cls-28{fill:#297ae3;}.cls-29{fill:#dfa305;}.cls-30{fill:#edb205;}.cls-31{fill:#428cfb;}.cls-32{fill:#2879e2;}.cls-33{fill:#db9f05;}.cls-34{fill:#fbb5ae;}.cls-35{fill:#fdb9b1;}.cls-36{fill:#d52929;}.cls-37{fill:#f9b1a9;}.cls-38{fill:#f1a19c;}.cls-39{fill:#f5a9a3;}.cls-40{fill:#363b73;}.cls-41{fill:#8e90b2;}.cls-42{fill:#fefefe;}.cls-43{fill:#8cb9fc;}.cls-44{fill:#96bdfc;}.cls-45{fill:#448efb;}.cls-46{fill:#92bbfc;}.cls-47{fill:#9ebfee;}.cls-48{fill:#fdfdfe;}.cls-49{fill:#a1c3fb;}.cls-50{fill:#3482ed;}.cls-51{fill:#3a87f4;}.cls-52{fill:#3885f1;}.cls-53{fill:#3583ef;}.cls-54{fill:#87b0ea;}.cls-55{fill:#8ab3eb;}.cls-56{fill:#8fb6ec;}.cls-57{fill:#94b9ec;}.cls-58{fill:#191f64;}.cls-59{fill:#1e2367;}.cls-60{fill:#97bbed;}.cls-61{fill:#8eb5eb;}.cls-62{fill:#93b8ec;}.cls-63{fill:#89b2eb;}.cls-64{fill:#ededed;}.cls-65{fill:#fdfefe;}.cls-66{fill:#d5d6d7;}.cls-67{fill:#e84a47;}.cls-68{fill:#fcfdfe;}.cls-69{fill:#dcd2db;}.cls-70{fill:#fef4f3;}.cls-71{fill:#5f9efb;}.cls-72{fill:#ededfe;}.cls-73{fill:#e0e1f5;}.cls-74{fill:#e9eafb;}.cls-75{fill:#e5e6f8;}.cls-76{fill:#dddff3;}.cls-77{fill:#438dfb;}.cls-78{fill:#8bb8f8;}.cls-79{fill:#e2e6ed;}.cls-80{fill:#e4e5f8;}.cls-81{fill:#171d62;}.cls-82{fill:#e7e8fa;}.cls-83{fill:#a4c3ef;}.cls-84{fill:#a9c5ef;}.cls-85{fill:#99bced;}.cls-86{fill:#131a60;}.cls-87{fill:#92b7ec;}</style></defs><path class="cls-1" d="M403.12,806.19q-200.32,0-400.65,0c-2,0-2.47-.45-2.47-2.47Q.08,403.12,0,2.47C0,.45.45,0,2.47,0q400.65.08,801.3,0c2,0,2.47.45,2.47,2.47q-.07,400.65,0,801.3c0,2-.45,2.47-2.47,2.47Q603.45,806.15,403.12,806.19Z"/><path class="cls-2" d="M604.8,139.73c13.6,0,27.22-.4,40.81.1,9.52.35,17.61,4.58,24.14,11.76a35.35,35.35,0,0,1,8.75,16.91,43.2,43.2,0,0,1,.86,8.49c.07,23,0,46,0,69,.93,1,.9,2.28.91,3.53q0,13.64,0,27.28c0,1.24.08,2.53-.89,3.53,0,5.46,0,10.92,0,16.38q0,180.43,0,360.87c0,10.17-3,19.26-10.06,26.61-6.67,6.92-14.91,11.26-24.69,11.28q-100,.15-200,0c-8.41,0-15.73-3.34-22.14-8.87a37,37,0,0,1-12.6-27.06q-.06-81.09,0-162.18c0-.35,0-.71.05-1.07,1.69-4.64,5-8.37,7.35-12.6a17.37,17.37,0,0,1,1.9-2.89c.86-1,1.63-1.05,2.07.41a24.75,24.75,0,0,1,.23,5.09q0,70.47,0,140.94c0,5.1,0,5.1,5.21,5.1H664.26c3.27-.06,3.48-.25,3.54-3.51,0-.9,0-1.79,0-2.69V209.5c0-6.69.44-6.08-6.09-6.08H538.49a18.85,18.85,0,0,1-4.8-.27c-1.73-.68-.82-1.67-.22-2.51,1.73-2.39,3.75-4.55,5.69-6.78,4.52-5.2,9.42-10,14.32-14.88a7.39,7.39,0,0,0,1.23-1.49c-5.39.61-10.51,1.21-15.62,1.83-4.18.51-8.35,1-12.51,1.56-2.1.28-3-.6-3.34-2.49a22.69,22.69,0,0,1-.41-4.26c0-1.57.77-2.36,2.44-1.67a5.59,5.59,0,0,0,3.34.77q15.67,0,31.37,0c.73,0,1.57.24,2.3-.57a7.25,7.25,0,0,0-3.44-.43c-6.07,0-12.15,0-18.23,0a9.8,9.8,0,0,1-3.45-.33c-1.7-1.59.26-1.51.89-1.61,2.81-.49,5.66-.81,8.5-1.14,6.21-.73,12.41-1.62,18.63-2.28A7,7,0,0,0,569,165.1,316.47,316.47,0,0,1,597.11,144C599.56,142.38,601.92,140.59,604.8,139.73Z"/><path class="cls-3" d="M524.64,172.41c-1.61.27-1.19,1.26-1,2.4.84,6.05.76,5.84,6.76,4.87,6.46-1,13-1.7,19.52-2.35,2-.2,4-1.11,6.53-.26-8.34,8.2-16.46,16.37-23.58,25.43-1.44,1.31-3.22.89-4.87.89q-50.45,0-100.88,0c-6.16,0-5.62-.43-5.62,5.68q0,53.79,0,107.59c0,1.68.28,3.41-.61,5-1.72,1.38-3.73.84-5.65.86-.45,0-.9.06-1.34,0-3-.07-3.64-.66-3.68-3.63-.07-4.74,0-9.48,0-14.22s.33-9.48-.26-14.21l0-10.06a8.49,8.49,0,0,1-.35-2.92q0-14.35,0-28.72a9.94,9.94,0,0,1,.35-2.92V223.05a117,117,0,0,1,0-19.36c0-9-.1-18.07,0-27.11.2-18,12-32.43,29.19-36.13a28.6,28.6,0,0,1,6.08-.78q79.16,0,158.32,0c.44,0,.89,0,1.34,0-7.73,5.26-15.6,10.33-23,16a109.13,109.13,0,0,0-10.11,8.28c-3.29,3.26-7.27,3.67-11.45,4.13-7.76.86-15.5,1.88-23.25,2.85-.14,0-.27.22-.4.34-.82.87-1.92.8-3,.8C530.62,172.17,527.63,172.21,524.64,172.41Z"/><path class="cls-4" d="M254.68,431.9c-2.33,7.36-4.74,14.71-6.94,22.11-.51,1.71-1.05,2-2.74,1.53-3.18-1-6.21-2.26-9.28-3.46-1.85.15-3.06-1.29-4.61-1.87a32,32,0,0,1-4.63-3c-3.1-2.63-5.17-6.12-7.64-9.29-2-3.31-3.85-6.73-6.57-9.56-.93-.94-1.88-1.86-2.79-2.82-2.19-2.29-4.72-3.67-8-3.12-2.62.06-5.24,0-7.86.07-1,0-2,.18-2.46-1,0-.19,0-.44.15-.47,3.87-1.12,7.72-.63,11-.36C199,419,194.56,418,190.59,416c-7.73-3.81-13.6-9.43-16.92-17.51-3.46-8.25-3.77-16.79-2.35-25.49a139.29,139.29,0,0,1,8.86-30c1.53-3.52,1.21-3.76-2.75-3.9-6.56-.24-13,1.06-19.43,1.8-1.21.14-2.53.58-3.29-.93,4.61-4.3,8.08-9.55,11.64-14.66,8.22-11.8,19.2-20.36,31.49-27.41A99.57,99.57,0,0,1,222,287.7a1.23,1.23,0,0,1,.92.82,14.55,14.55,0,0,1,.28,3.42c.38,4.93,3.89,7.91,8.77,7.44,1-.1,1.93-.43,2.77.35-2.45,10.27-5.15,20.49-6.68,31-1.74,12-2.56,24-.19,35.95a27.37,27.37,0,0,0,11,16.86c7.51,5.62,15.35,10.77,23.31,15.73,1.55,1,2,1.8,1.35,3.59-1.34,3.95-2.42,8-3.6,12,0,3.61-1.43,6.9-2.58,10.22C256.52,427.34,256.57,430,254.68,431.9Z"/><path class="cls-4" d="M303.61,378q0-13.8,0-27.61a3.38,3.38,0,0,1,2.93-1c13.65,0,27.3-.12,41,.06,9.33-.12,18.65-.14,28,0q15.3-.19,30.61,0c11.45-.13,22.9-.15,34.35,0,9.13-.14,18.27-.11,27.4,0,7.88,0,15.76-.13,23.64,0,8.24-.12,16.47-.14,24.71,0,6.42-.16,12.84-.06,19.26-.05a4.59,4.59,0,0,1,2.82.65c1.3,1.82.73,3.92.81,5.91a46.89,46.89,0,0,1,0,5c0,4.47.12,8.93,0,13.4,0,1.33.13,2.7-.71,3.88a4.44,4.44,0,0,1-3,.76c-4.94,0-9.88.11-14.82-.05-7,.12-14,.1-21,0-7.87,0-15.74.13-23.61,0q-10.76.17-21.51,0c-8.95.13-17.9.1-26.85,0-11.63.06-23.26.14-34.89,0q-15.3.19-30.6,0-12.65.18-25.29,0c-10.09.17-20.18.06-30.28.05A3.2,3.2,0,0,1,303.61,378Z"/><path class="cls-5" d="M132.09,667.12a38.65,38.65,0,0,0-4.81-.08c-2.22.22-3.21-.41-3.59-2.83-1.14-7.24-2.08-14.48-1.78-21.83,2.8-3.06,4.59-6.8,6.81-10.24q13.13-20.4,26.16-40.86c8.94-14,18-28,26.85-42,6.08-9.59,12.4-19,18.31-28.7a14.89,14.89,0,0,1,1.44-1.93c1.2-1.4,2.31-1.69,3.25.26a29.26,29.26,0,0,1,.37,11.93c-.71,5-1.38,10.06-2,15.1a8.34,8.34,0,0,0-.36,3.18c0,1.85-.06,3.69,0,5.54-.61,8.27,2,16,4.06,23.79a7.42,7.42,0,0,1,.12,3.41c-2.39,7.33-5.75,14.27-8.79,21.33-7.87,18.33-16.28,36.42-24.8,54.46-1.3,2.75-3,5.3-4.3,8a3.37,3.37,0,0,1-2.09,2,88.3,88.3,0,0,1-11.27.19q-9,.2-18.05,0C135.77,667.81,133.8,668.42,132.09,667.12Z"/><path class="cls-6" d="M262.21,666.43c8.5,7.27,17.18,14.29,27,19.78,5.93,3.31,12.3,5.77,18.09,9.36a46.62,46.62,0,0,1,12.23,10.72,5.5,5.5,0,0,1,1.55,2.69H215.66c-.44,0-.89-.05-1.33-.08-.78-.93-.27-1.84.07-2.72.75-2,1.36-4,2-6,3.78-10.6,7.52-21.21,11.33-31.79a3.64,3.64,0,0,1,1.37-2.23c1.84-.65,3.75-.35,5.63-.38,1.31-.07,2.61,0,3.92,0,3-.1,6.05-.11,9.08,0,3.72,0,7.43,0,11.14,0A5.22,5.22,0,0,1,262.21,666.43Z"/><path class="cls-7" d="M392.65,378.09h34.92c.47,1.5-.34,2.8-.78,4.11-5.69,17.13-11.63,34.19-17,51.41-3.06,9.79-7.11,19.25-9.68,29.19a1.76,1.76,0,0,1-.46.66h-34.9a1.48,1.48,0,0,1-.49-1.45c1.18-3.5,1.6-7.29,3.86-10.39,2.57-1.1,4.85-2.53,5.83-5.37a21.76,21.76,0,0,0,.23-6.39,41.52,41.52,0,0,1,2.48-16.16c5.2-14.15,9.6-28.59,14.49-42.85A5.87,5.87,0,0,1,392.65,378.09Z"/><path class="cls-8" d="M243.94,471.58c3.5,8.06,6.85,16.18,9.07,24.72-1.08,6.42-2,12.88-2.84,19.33-.82,6.29-1.71,12.58-2.61,18.86-2.2,15.22-4,30.5-6.25,45.72-1.83,12.47-3.54,25-5.39,37.43-2.23,15.13-4.2,30.29-6.23,45.45a5.85,5.85,0,0,1-1.38,3.67c-3.28,1.14-6.63.72-9.93.34-1.85-.21-2.82-1.67-2.85-3.6q1.91-11.24,3.37-22.54c.94-7.18,1.94-14.36,2.91-21.54,1.2-8.86,2.51-17.7,3.67-26.57.71-5.4,1.4-10.82,2.27-16.2,1.4-8.65,2.51-17.34,3.74-26q3.28-23.25,6.45-46.5c1.36-9.92,2.91-19.81,4.18-29.74C242.27,473.26,242.19,471.78,243.94,471.58Z"/><path class="cls-9" d="M204.12,518.33c-1.05-.78-1.57-.07-2.09.73-2.43,3.72-4.89,7.42-7.29,11.16Q183.94,547.1,173.18,564c-7.76,12.15-15.49,24.32-23.29,36.45-7.4,11.53-14.88,23-22.3,34.54-1.21,1.87-2.31,3.81-3.44,5.72-.52.88-1.1,1.65-2.24,1.67-.24-12.92,1.86-25.27,9-36.38,4.59-7.21,8.42-14.73,10-23.23,3.84-5.57,7.52-11.26,11.15-17s7.27-11.87,11.14-17.65c5.46-8.15,10.56-16.53,15.93-24.74,4.69-7.16,9.33-14.35,13.86-21.62.58-.94,1-2.18,2.55-2,2.53,1.87,3.69,4.76,5.37,7.26a43,43,0,0,1,3.2,8.2C204.35,516.25,204.89,517.3,204.12,518.33Z"/><path class="cls-10" d="M392.65,378.09q-3.84,11.75-7.69,23.5c-2.6,7.84-4.75,15.87-8,23.43-2.65,6.16-1.73,12.33-2.05,18.54-.06,1.12.41,2.34-.49,3.34-1-.91-.79-2.14-.8-3.27-.05-3.85,0-7.69,0-11.54s-2.47-6.46-6-6.4-5.72,2.48-5.8,6.35,0,7.86,0,11.8c0,4.2,1.32,5.91,5.38,7.18a2.28,2.28,0,0,1,1.37.77,50.41,50.41,0,0,0-3.76,11.68H334.11a1.85,1.85,0,0,1-.24-2c1.81-5.78,3.79-11.5,5.71-17.24a2.65,2.65,0,0,1,.74-1.1c.74-.47,1.55-.19,2.33-.21a9.24,9.24,0,0,0,8.52-5.75,9.51,9.51,0,0,0-2.6-10.46c-.83-.74-2.11-1.07-2.33-2.41q6.64-20.31,13.54-40.55c.66-1.92.81-4.06,2.26-5.67Z"/><path class="cls-11" d="M399.63,463.46c-.21-3.6,1.7-6.65,2.64-9.94,1.5-5.27,4-10.24,5.46-15.48,2.83-10.16,6.51-20,9.73-30,3-9.18,6-18.32,9.07-27.47.28-.84.69-1.64,1-2.45h26.84c.84,1,.54,2,.19,3-4,11.4-7.66,22.87-11.49,34.31-2.61,7.79-5.27,15.57-7.77,23.4-.64,2-.1,2.64,1.88,2.5a6.87,6.87,0,0,1,2.92.24c.53.2,1.33.39.66,1.28-1.32.75-2.77.52-4.17.51-1.68,0-2.44.65-2.39,2.37a9.78,9.78,0,0,1-.34,3.95c-1.57,1.28-1.2-.66-1.84-1.16-1.48,4.34-2.86,8.64-4.31,12.91-.35,1-.58,2.09-1.71,2.59-1.86.53-3.77.28-5.66.3-2.63.14-5.25.06-7.87,0a4,4,0,0,1-2.7-.8Z"/><path class="cls-4" d="M224.65,282c-6-4.45-11.58-9.26-15.4-15.83-5.16-8.87-5.3-18.14-2.52-27.72.41-1.4,1.15-1.52,2.36-1.42q37.41,3.28,74.83,6.53c.69.06,1.38.24,2.26.4-3.74,8.41-8.11,16-17.54,18.82a5,5,0,0,1-2.43.73c-1.24,0-2.49-.07-3.72.07,1.24-.11,2.48,0,3.72-.05a16.11,16.11,0,0,1,2.94-.22c9.27-1.71,15-7.49,18.2-16.53,1.87,8-11.29,17.76-23.65,18.13-2.39,1-4.6,0-6.68-.86-4.17-1.78-8.64-2.91-12.43-5.55-1.1-.76-1.93-.28-2.86.45a35.69,35.69,0,0,1-6.36,4.41c-2.72,1.29-5.3,1.4-7.86-.29-1.91-1.25-3.76-1.63-5.51.3-1.48,1.63-1.53,4-.08,6.17a13.5,13.5,0,0,0,2.15,2.38c3.31,3.2,3.66,6,1.31,10A.53.53,0,0,1,224.65,282Z"/><path class="cls-12" d="M340.55,443.28q-3.23,10.1-6.44,20.19c-4.84-.15-9.75.82-14.48-.94,2.5-2.2,2.5-2.2-.43-4.15-1.78-1.19-3.59-2.33-5.32-3.6-.62-.45-1.54-1-1.13-1.88s1.38-.75,2.15-.58c3.31.72,6.58,1.71,10,1.4a8.35,8.35,0,0,0,2.38-.34c.68-.27,1.35-.65,1.34-1.48s-.81-1.14-1.49-1.27a40.4,40.4,0,0,1-8-2c-1.7-.72-3.61-1.15-4.67-2.91-.27-1.49.35-2.83.8-4.16,5.44-15.82,10.48-31.79,16-47.58,1.62-4.62,3.05-9.31,4.65-13.94a4.94,4.94,0,0,1,.86-1.93H362c-.64,4.26-2.44,8.17-3.73,12.22-3.31,10.42-6.84,20.77-10.29,31.14a5.37,5.37,0,0,1-1.7,3c-.74.72-1.64.46-2.52.42-4.39-.19-7.64,1.82-9.05,5.59a9.4,9.4,0,0,0,3.12,10.77C338.75,441.89,340,442.18,340.55,443.28Z"/><path class="cls-13" d="M336.79,378.08c.36,3.28-1.65,5.94-2.43,8.92-1.3,4.95-3.34,9.71-5,14.58-2.47,7.33-4.95,14.67-7.25,22.06-1.11,3.55-3,6.88-3.86,10.39-1,4-2.73,7.72-3.5,11.74-2.08.47-3.52-1-5.13-1.83-2.45-1.22-5-2.36-6.61-4.84a4,4,0,0,1,.15-3c2-1.89,4.66-1.4,7.07-1.75,1.31-.19,2.68.08,4-.33.82-.25,2-.45,1.91-1.49-.09-.87-1.27-.86-2-.89a41.15,41.15,0,0,1-8.2-1.09c-.93-.24-2-.28-2.43-1.39q0-23.87,0-47.73c0-1.16.07-2.32.11-3.48Z"/><path class="cls-14" d="M243.94,471.58c-2,2.24-1.05,5.14-1.5,7.7-1.39,7.86-2.27,15.81-3.41,23.71-1.33,9.13-2.95,18.23-4,27.39-.72,6.18-1.75,12.31-2.44,18.48-.62,5.47-1.66,10.89-2.21,16.36-.65,6.45-1.88,12.82-2.77,19.23-1,7.47-1.88,15-3.22,22.4-1.11,6.2-1.68,12.49-2.52,18.73q-1.14,8.58-2.34,17.15c-.83,6-1.68,11.95-2.47,17.93-.14,1.11-.26,2.14-1.33,2.75a1.21,1.21,0,0,1-1-.43c-2.18-3.58-4.36-7.17-4.76-11.49,1.79-8.77,2.65-17.67,3.88-26.51,2.11-15.05,4.29-30.08,6.37-45.13,3-21.77,6.07-43.54,9-65.32,1.72-12.66,3.59-25.31,5.37-38,.64-4.52,1.26-9,2.08-13.51.2-1.12.1-2.63,1.87-2.79A50.44,50.44,0,0,1,243.94,471.58Z"/><path class="cls-15" d="M154.71,340c3.12,1,6.15-.16,9.15-.62a88.8,88.8,0,0,1,15.7-1c2.54,0,3,.79,2,3.15a138.76,138.76,0,0,0-7.23,20.93c-.84,3.42-1.64,6.86-2.46,10.29a4,4,0,0,1-2.49.8c-9.85.91-19.71,1.66-29.59,2.16a103.35,103.35,0,0,0-14,1.86c1.94-12.3,8.2-22,17.9-29.61C147.28,345.2,151,342.66,154.71,340Z"/><path class="cls-16" d="M247.64,666.46l-9.13,0c-.95-1.07-.76-2.33-.58-3.57,2.81-19.28,5.33-38.59,8.1-57.88q5.81-40.32,11.16-80.7a24.78,24.78,0,0,1,.77-4.21c.27-.85.25-2.09,1.72-1.93,2.4,9.26,5.61,18.34,6.13,28-1,.73-.93,1.9-1.07,2.92-3,21.15-5.9,42.32-8.9,63.47-2.46,17.35-4.57,34.74-7.41,52a7.3,7.3,0,0,1-.25,1.05A2.92,2.92,0,0,1,247.64,666.46Z"/><path class="cls-13" d="M347.53,350.23l-39.39.12h-4.55c-.51-7.16,0-14.07,4.72-20,4.1-5.18,9.44-8.32,16-8.5,10.61-.27,21.23,0,31.84,0a2.11,2.11,0,0,1,.34,2.25c-2.92,8.56-5.72,17.16-8.62,25.73A1.6,1.6,0,0,1,347.53,350.23Z"/><path class="cls-17" d="M125.82,377.6c2.17-2.5,5.3-1.58,8-2.06,10.29-1.86,20.88-.5,31.18-2.68,2.22-.47,4.62-.08,6.93-.08a62.56,62.56,0,0,0-.5,11.92c.33,4.77.91,9.52,3.18,13.86a23.8,23.8,0,0,1-8.42.66c-8.62-.44-17,1.47-25.53,2.08-4.45.33-8.92-.18-13.34.57-1.71-.85-2.13-2.26-2.27-4.11C124.5,391,124.38,384.28,125.82,377.6Z"/><path class="cls-18" d="M247.64,666q.93-7,1.87-14c.81-6.06,1.59-12.12,2.44-18.17.91-6.58,1.92-13.15,2.84-19.73,1-7.37,2.09-14.73,3-22.11.7-5.45,1.7-10.84,2.26-16.32.75-7.31,2.06-14.56,3.13-21.83.35-2.36.73-4.72,1.06-7.09.17-1.19.5-1.75,1.53-.58A32.29,32.29,0,0,1,266,553c.59,3.8-.15,7.65.39,11.45v1.12c-.41,6-.06,11.94-.19,17.92a9,9,0,0,1-.2,3.18c.16,9.31-.44,18.6-.82,27.89-.49,12.25-1.21,24.48-1.95,36.71-.3,4.91-.28,9.84-1.09,14.71A81.09,81.09,0,0,1,247.64,666Z"/><path class="cls-19" d="M228.3,666.55c.72-5,1.45-10,2.14-15q1.69-12.12,3.33-24.25c.88-6.5,1.7-13,2.61-19.5.87-6.32,1.81-12.64,2.73-19,1-7.19,2.12-14.38,3.15-21.57,1.59-11.15,3-22.31,4.63-33.45,1.22-8.42,2.48-16.85,3.46-25.31.41-3.51,1.05-7,1.56-10.51a1.94,1.94,0,0,1,1.1-1.7l4.23,13.44c-1.06,6.7-1.86,13.43-2.86,20.14-3.15,21-6,42.14-8.91,63.22q-4.26,31-8.65,61.91c-.43,3-.83,6-1.23,9a4.13,4.13,0,0,1-.84,2.49l-5.73.27A.62.62,0,0,1,228.3,666.55Z"/><path class="cls-20" d="M225,281.88c2.19-5.28,2.06-6-2.05-10.07a9.27,9.27,0,0,1-2.74-4.51,4.83,4.83,0,0,1,1.88-5.22,3.81,3.81,0,0,1,5.16,0c3.2,2.55,6.36,1.74,9.42-.17a17.72,17.72,0,0,0,4.43-3.44c1.55-1.88,2.61-1.27,4.36-.31,5.74,3.14,11.72,5.73,18.27,6.72-1.06,3.54-.38,7,.3,10.51.9,4.52-.07,6-4.61,6.09-3.35.1-4.33,2.82-5.85,5-1.73,1.32-2.94.9-4.66-1.51,0,1.49,2.12,1.43,2.43,2.88-4.33,1.51-8.7,2.42-13.27,1.18-2.5.48-4.41-1-6.48-1.93a25.83,25.83,0,0,1-5.06-2.95C225.74,283.57,224.74,283.13,225,281.88Z"/><path class="cls-20" d="M303.46,439.35a60.14,60.14,0,0,0,11.31,6.42,32.12,32.12,0,0,0,11.31,3.91c1.35.22,3.82-.17,3.64,2.18-.16,2.17-2.23,2.43-4.1,2.59a27.26,27.26,0,0,1-10-1.29,4.26,4.26,0,0,0-3-.06l11.19,7.44c-1.13,1.34-2.72,1.45-4.1,2-5.46,1.44-11,2.7-16.46.41a29.07,29.07,0,0,1-8.92-5.78c-4.57-4.36-8.91-9-13.35-13.47.64-4.93,2.11-9.67,3.29-14.48a1.69,1.69,0,0,1,1.05-1.13c6,1,12.2.21,18.25,1.1a46.88,46.88,0,0,0,11,1.78c1.09,0,3.16-.34,3.23,1.47,0,1.46-1.72,2.09-3,2.29-2.87.48-5.81.64-8.72.87a5.55,5.55,0,0,0-2.57.6A2.32,2.32,0,0,0,303.46,439.35Z"/><path class="cls-21" d="M195.53,500.06c-2.55,1.35-3.23,4.14-4.66,6.29-5.63,8.51-11,17.17-16.49,25.79-6.23,9.82-12.73,19.47-18.78,29.41-4.1,6.74-8.55,13.26-12.85,19.88a2.4,2.4,0,0,1-1.88,1.34,105.23,105.23,0,0,1,12.93-37.43,56.63,56.63,0,0,1,7-9.41,46.76,46.76,0,0,0,12.22-25.69c.49-1.07-.11-2.27.41-3.34a.27.27,0,0,1,0-.39c3.67-5.39,7-11,10.51-16.49.54-.84,1.07-1.7,2.28-1.54,2.16,1.41,3.64,3.48,5.29,5.38.88,1.31,2,2.42,3,3.66C195.1,498.24,195.89,499,195.53,500.06Z"/><path class="cls-22" d="M127.3,401.87c.6-1.42,1.85-1.17,3-1.16,8.09,0,16.17-.18,24.1-2.06a10.15,10.15,0,0,1,3.21-.08c5.67.5,11.33-1,17,0A30.06,30.06,0,0,0,183.86,411c4.84,3.84,10.52,5.92,16.23,8a9.17,9.17,0,0,1,3.47,2.19h-12.4c-1.26,1.07-2.77.65-4.2.72a119.88,119.88,0,0,1-15-1.54c-4.18-.64-8.32-1.52-12.44-2.47a4.85,4.85,0,0,1-2.75-1.46c-9.53-2.89-18.78-6.4-27-12.25A10.27,10.27,0,0,1,127.3,401.87Z"/><path class="cls-23" d="M406.07,350.23H375.46c-.77-.93-.26-1.82,0-2.76,2.47-7.87,5.42-15.58,7.67-23.52.25-.87.47-1.74,1.42-2.13l21.51-.12c3.28-.62,3.59-2.86,3.5-5.71q-.27-9,0-18.12c.08-3,.1-5.78-3.42-6.92,1.17-.7,2.49-.09,3.7-.43,1.53.43,1,1.7,1,2.67,0,8.11,0,16.22,0,24.33,0,5-.45,4.11,4.29,4.25a1.69,1.69,0,0,1,.13,1.77C412.57,332,409.6,340.4,407,348.9A3.91,3.91,0,0,1,406.07,350.23Z"/><path class="cls-24" d="M155.8,667.14l11.76-.13c2.36.65,9.7,7.78,10.47,10.17.26,9.66.08,19.31.09,29a3.49,3.49,0,0,1-.84,2.74H155.8c-1.24-.9-1.37-2.24-1.38-3.6q-.07-17.26,0-34.54C154.43,669.38,154.59,668.05,155.8,667.14Z"/><path class="cls-12" d="M384.58,321.82c-1.82,5.89-3.41,11.86-5.52,17.64-1.3,3.56-2.43,7.17-3.6,10.77H347.53c.26-4.52,2.49-8.47,3.69-12.72,1.48-5.28,3.81-10.29,4.91-15.69Z"/><path class="cls-25" d="M171.94,419.63l15,1.56c2.8,2.33,1.68,5.45,1,7.94-1.26,4.23-1.58,8.61-2.11,12.87-.9,7.24-2.38,14.39-3.19,21.65-.5,4.42-1.09,8.86-1.78,13.27-.17,1-.21,2.17-1.29,2.8-1.37.32-1.81-.83-2.45-1.6-3-3.67-5.23-7.89-8-11.77-.38-2.55-1.71-4.75-2.59-7.11a7.45,7.45,0,0,1,0-4.21c1.6-8.34,2.3-16.82,3.76-25.17C170.86,426.45,170.6,422.9,171.94,419.63Z"/><path class="cls-26" d="M231.53,449.72l4.19,2.36c0,.25,0,.49,0,.74-1.07,8-2.17,15.94-3.35,23.89-2,13.36-3.81,26.74-5.64,40.12-1.19,8.68-2.32,17.37-3.59,26-2.46,16.9-4.76,33.82-7.16,50.73q-3,20.83-5.72,41.72c-.35,2.6-.43,5.37-2.22,7.6-1.28.16-1.38-.91-1.56-1.67-.68-3-1.53-6-1.51-9.06a72.87,72.87,0,0,1,1.41-10,84.65,84.65,0,0,0,1.49-15.56c0-2.94,1.47-5.6,1.63-8.51a5.73,5.73,0,0,0,.13-3.28,2.69,2.69,0,0,1,.24-1.31c1.26-2.83,1.46-5.9,1.87-8.89q3.15-22.95,6.33-45.91c2.12-15.48,4.36-30.94,6.54-46.42,1.76-12.55,3.61-25.1,5.13-37.69C229.94,452.9,230.08,451.05,231.53,449.72Z"/><path class="cls-14" d="M207.85,643a110.17,110.17,0,0,0,2.79-17.33c.29-3.7,1.36-7.33,1.7-11,.61-6.62,2.07-13.13,2.59-19.77.32-4.06,1.41-8,1.77-12.1.57-6.28,2.14-12.41,2.54-18.72.26-4,1.37-7.87,1.74-11.83.58-6.28,2.17-12.4,2.56-18.71.24-3.79,1.38-7.51,1.71-11.3.58-6.64,2.09-13.13,2.57-19.78.29-4,1.47-7.84,1.77-11.84.47-6.37,2.12-12.58,2.54-19a96.64,96.64,0,0,1,1.77-11.56,20.44,20.44,0,0,0,.3-3.72,3.92,3.92,0,0,1,1.51-3.52c.66,2.6,2.7,4.67,2.89,7.45-1.88,2.89-1.66,6.31-2.16,9.48-1.31,8.24-2.17,16.54-3.34,24.8-.9,6.41-2.09,12.78-3,19.19-1.06,7.56-1.9,15.15-2.91,22.71-.52,4-1.45,7.88-1.77,11.85-.5,6.29-2,12.44-2.55,18.72-.51,5.3-1.38,10.56-2.14,15.83-1,7.11-2.17,14.2-3.15,21.32-1.32,9.58-2.24,19.23-3.91,28.75-1.12,6.37-1,13-3.12,19.16C208.5,650.59,207,645.68,207.85,643Z"/><path class="cls-27" d="M155.8,667.14a13.34,13.34,0,0,0-.56,3.93q.06,16.95,0,33.9a12.35,12.35,0,0,0,.55,3.92H137.54c-1-1-.87-2.29-.87-3.52q0-17.36,0-34.7c0-1.24-.08-2.52.87-3.53Z"/><path class="cls-28" d="M234.75,666.53c.29-6.4,1.47-12.69,2.33-19,.95-7.12,2-14.23,3-21.34s2.06-14,3-21.07c1-7.21,1.91-14.43,2.88-21.64q1.11-8.19,2.26-16.36c1-7.47,2.05-14.94,3.12-22.41.93-6.58,1.92-13.17,2.88-19.75.65-4.39,1.31-8.78,1.91-13.17.11-.84.2-1.6,1-2,.81,2.83,1.62,5.65,2.44,8.48-1.69,1.77-1.4,4.18-1.71,6.27-1.62,11.15-2.86,22.34-4.48,33.48-1.37,9.39-2.69,18.78-4,28.17q-2.07,14.34-4,28.71C244,625.92,242.25,637,240.73,648c-.85,6.15-1.49,12.32-2.22,18.49Z"/><path class="cls-29" d="M177.28,708.89l.07-32.86c.91-.38,1.53.19,2.16.68a101.14,101.14,0,0,0,16.84,10.81c1.43.73,3.24,1.29,3.52,3.35a127.17,127.17,0,0,0-.14,15.74,2.93,2.93,0,0,1-.43,2.28Z"/><path class="cls-30" d="M137.54,667.14v41.75h-20.4c5-14.07,10-27.92,15-41.77Z"/><path class="cls-31" d="M171.94,419.63c.9,1,.24,2.33.11,3.3-.9,7.05-2.4,14-3.12,21.1-.52,5.13-1.64,10.14-2.39,15.21-4.84-8.88-7.45-18.49-9.15-28.39a72.62,72.62,0,0,1-.62-14.44Z"/><path class="cls-32" d="M169.13,466.35c.62-.67.88-.09,1.14.36a145.32,145.32,0,0,0,8.63,12.93c3,2.63,5.85,5.4,7.5,9.14-1.1,0-1.42.86-1.89,1.62q-4.22,6.92-8.52,13.76a6.65,6.65,0,0,1-2.5,2.35c.52-12.52-2.05-24.71-4-37C169.35,468.48,169.25,467.41,169.13,466.35Z"/><path class="cls-3" d="M409.81,463.57l10.82,0a3.11,3.11,0,0,1,.77,2.21c.08,4.07.1,8.15,0,12.22a2.74,2.74,0,0,1-.83,2.17c-2.63,3-4.28,6.67-6.53,9.93-1.41,2-2.74,4.12-4.11,6.18Q409.87,479.94,409.81,463.57Z"/><path class="cls-33" d="M199.3,708.89a66.33,66.33,0,0,1,.07-18.93c6.54,1.44,11.86,5.12,17,9.19a2.68,2.68,0,0,1,.67,1.14l-2.67,8.6Z"/><path class="cls-34" d="M266.4,419.06l9.16,4.8a3,3,0,0,1,.33,2.54c-.52,3.24-1.57,6.36-2.24,9.57-.19.92-.51,2-1.86,1.8L262.13,434c1-4.35,1.86-8.73,3-13.05C265.35,420.18,265.48,419.36,266.4,419.06Z"/><path class="cls-35" d="M271.79,437.77a2,2,0,0,0,1.12-1.69c.71-4.11,2.2-8.05,2.65-12.22l9.68,4.22c-.94,4-1.82,8-2.87,12a7.64,7.64,0,0,1-1.46,3.63Z"/><path class="cls-36" d="M409.85,245.9c.86.41.64,1.2.64,1.88q0,15.39,0,30.8c0,.68.21,1.47-.64,1.88-3.77-.22-3.77-.22-3.77-4.16V250C406.08,246.12,406.08,246.12,409.85,245.9Z"/><path class="cls-36" d="M679.42,280.35q0-17.18,0-34.35c4.33,0,4.33,0,4.33,4.3V276C683.74,280.37,683.74,280.37,679.42,280.35Z"/><path class="cls-37" d="M266.4,419.06c-1,4.34-2.12,8.67-3.12,13-.19.81-.3,1.55-1.15,1.92l-7.45-2.11c1.5-5.77,3.3-11.45,5.22-17.09C261.34,417.34,264.39,417.41,266.4,419.06Z"/><path class="cls-36" d="M406.17,291c4.3,0,4.3,0,4.3,4.38,0,7.74-.15,15.49.08,23.22.09,2.83-.83,3.65-3.39,3.21a9.46,9.46,0,0,0-1.07-.06Q406.14,306.33,406.17,291Z"/><path class="cls-38" d="M225,281.88c3.67,3.64,8.36,5.39,13.07,7.13l-2.25,6.42a.85.85,0,0,1-1,.24c-4.17-2.34-8.77-3.94-12.4-7.21-.15-.26-.31-.51-.47-.76a11.58,11.58,0,0,0,2.7-5.74A.41.41,0,0,1,225,281.88Z"/><path class="cls-39" d="M222.42,288.46l11.94,6.34c.46.24.95.42,1.43.63-.37,1.43-.73,2.87-1.1,4.3a3.11,3.11,0,0,0-.53,0C225.46,300.91,221.77,297.37,222.42,288.46Z"/><path class="cls-36" d="M409.87,203.69a1.46,1.46,0,0,1,.63,1.38q0,8.33,0,16.64c0,.54,0,1.09-.64,1.34-3.77-.21-3.77-.21-3.77-4.14v-11C406.08,204,406.08,204,409.87,203.69Z"/><path class="cls-40" d="M251.31,287.83c-1.52-.77-2.94-1.62-3.34-3.47-.11-.51-.45-1.11.22-1.36s.8.45,1,.91c.76,2.07,2,3.22,4.39,2.54.75.14,1.32-1,2.33-.27C254.78,288.1,253.05,288,251.31,287.83Z"/><path class="cls-16" d="M266,586.71q0-9.69-.05-19.37a2.12,2.12,0,0,1,.44-1.73C266.34,572.64,266.61,579.69,266,586.71Z"/><path class="cls-28" d="M247.64,666h14.45a.75.75,0,0,1,.12.41l-14.57,0Z"/><path class="cls-16" d="M266.34,564.49c-1-3.79-.25-7.63-.39-11.45C266.6,556.84,266.34,560.67,266.34,564.49Z"/><path class="cls-41" d="M266.42,263.24a2.64,2.64,0,0,1,2.22-.5l.51.53a3.69,3.69,0,0,1-2.75.42c-.15-.11-.2-.21-.15-.31S266.36,263.24,266.42,263.24Z"/><path class="cls-32" d="M173.48,506.9c-.08,1.12.43,2.32-.41,3.34A7,7,0,0,1,173.48,506.9Z"/><path class="cls-42" d="M420.55,480.2q0-8.29.08-16.6l5.86-.14a4.55,4.55,0,0,1,3-.78c6.13,0,12.27-.08,18.41,0,7.69,0,15.39-.12,23.09,0q10.74-.18,21.48,0c8.06-.15,16.11-.06,24.17-.05a5.63,5.63,0,0,1,2.36.41c1.58,1.17,1.12,2.91,1.12,4.45q.06,27.1,0,54.22c0,12.21,7.52,22.1,19.39,24.74,11.15,2.48,22-1.57,27.55-10.82,3.31-5.17,4-10.83,4.11-16.9,1.34-80,.18-159.93.57-239.9a34.53,34.53,0,0,0-.11-4.55c-.67-4.26-1.67-8.4-4-12.13a25.9,25.9,0,0,0-36.52-7.48c-7.52,5.41-11.11,12.68-11,22,.18,13.67.06,27.34,0,41,0,1.48.33,3.08-.93,4.32a6.49,6.49,0,0,1-3.39.54c-5.27,0-10.54.11-15.8-.06q-11.55.18-23.09,0-13.69.18-27.39,0c-8.66.16-17.33.05-26,.05a3.57,3.57,0,0,1-3-.9q0-58.41-.1-116.81c0-2.56,1.33-2.38,3-2.38q53,0,106.06,0c1.08,0,2.15,0,3.23,0l90.22.05c14.23,0,28.46.06,42.7-.06,2.42,0,3.29.69,2.9,3a6.37,6.37,0,0,0,0,1.07q0,211.33,0,422.67c0,4.56.55,4-4,4H424.32c-4.21,0-3.72.46-3.72-3.73q0-72.9,0-145.81C420.59,482.53,420.57,481.36,420.55,480.2Z"/><path class="cls-3" d="M534.44,675.12c-1.86-2-4.1-3.57-5.52-6.07-5.88-10.41-.14-22,10.53-25.08a5.05,5.05,0,0,0,.9-.51,2.27,2.27,0,0,1,1.61-.7c1.17,0,2.33,0,3.5,0a17.44,17.44,0,0,1,13.14,7.49c5.71,9.67,4,18.65-4.69,25-4.28,3.14-9.16,3.23-14.1,2.61A8,8,0,0,1,534.44,675.12Z"/><path class="cls-43" d="M553.77,674.62c7.28-5.52,10.22-14.43,4.3-24.19a10.79,10.79,0,0,1-.14-3.88c.2-.86.24-2.09,1.75-1.48a20.63,20.63,0,0,1,9.56,16.66,21.79,21.79,0,0,1-14.4,22c-1.07,0-1.37-.83-1.51-1.57C552.86,679.63,552.42,677.07,553.77,674.62Z"/><path class="cls-44" d="M553.77,674.62c.32,3-.86,6.26,1.07,9.12-6.6,3-13,1.86-19.26-1a2.08,2.08,0,0,1-1.15-2.21c0-1.79,0-3.57,0-5.36,2.53.72,4.76,2.19,7.6,2.27C546.26,677.51,550.18,676.89,553.77,674.62Z"/><path class="cls-45" d="M524.64,172.41c.73-1,1.76-1,2.87-1,3,0,6,0,9.07-.06l24.09,0a11.61,11.61,0,0,1,2.13.08c.71.14,1.41.54,1.35,1.4s-.69,1.19-1.51,1.19H527.3C526.06,174.1,524.66,174.34,524.64,172.41Z"/><path class="cls-46" d="M559.68,645.07c-1.31.17-1,1.19-1.07,2a6.14,6.14,0,0,1-.54,3.33,17.47,17.47,0,0,0-12.36-7,5.83,5.83,0,0,0-3.76,0l-1.6,0c-.57-.09-1.35.16-1.48-.73-.11-.72.52-.8,1-1C545.67,639.79,554.44,640.55,559.68,645.07Z"/><path class="cls-47" d="M420.63,321.71l28.95.12a2.11,2.11,0,0,1,.21,2.27c-2.84,8.18-5.5,16.42-8.27,24.62a4,4,0,0,1-1.07,1.51H406.07c.6-4.51,2.58-8.62,3.88-12.92,1.59-5.23,3.49-10.36,5.26-15.54Z"/><path class="cls-48" d="M500.63,177.34c-1.28-1.11-2.83-2-3.24-3.81a1.68,1.68,0,0,1,.59-1.16c1.72-1.38,2.35-2.82.44-4.54-.18-.16-.11-.5,0-.76a7.65,7.65,0,0,0,1.22-.95c.92-1.05,1.64-1.34,2.6.07a17.9,17.9,0,0,0,2.61,2.53,2.67,2.67,0,0,1,1.59.94c1.29,1.24,1,2.4-.12,3.6a40.52,40.52,0,0,1-3.18,2.7C502.35,176.5,501.84,177.57,500.63,177.34Z"/><path class="cls-2" d="M500.63,177.34c.69-.57,1.39-1.13,2.09-1.69,1.5,1,2.88,2.5,5,1.33a3.4,3.4,0,0,0,1.84-3.28c0-2.43-1.78-3.24-3.71-3.87l-1-1.11c2.65-.91,5.38.44,6.84,3.37a6.1,6.1,0,0,1-2.23,7.71C506.21,181.9,502.11,181.11,500.63,177.34Z"/><path class="cls-49" d="M498.43,167.07c2.6,3.42,2.6,3.42-1,6.46-.5.12-.71,1.23-1.47.42-.31-.33-.67-.6-.94-.95-.83-1.09-2.91-1.9-2.46-3.1.56-1.52,2.19-2.71,3.55-3.83C497.21,165.13,497.52,167,498.43,167.07Z"/><path class="cls-50" d="M206.29,579c-2.32-7.9-4.86-15.76-4.3-24.17,1-5,1.5-10,2.2-15.06,1.4-10,2.85-20,4.22-30,2.83-20.63,5.63-41.26,8.67-61.85.36-2.48.51-5,1-7.44.21-1,.21-2.16,1.15-2.91,2.59,3,4.67,6.44,7.52,9.25-.23,5.55-1.35,11-2.11,16.47q-4.07,29.22-8.08,58.44c-2.31,16.65-4.58,33.3-7.09,49.92-.32,2.12-.27,4.32-1.08,6.33C208.09,578.79,207.85,580.49,206.29,579Z"/><path class="cls-51" d="M186.4,488.78l-7.5-9.14c1.9-1.17,1.31-3.3,1.47-4.87.88-8.2,1.9-16.42,3.57-24.46.9-4.36.91-8.81,1.91-13.19.91-4,1.57-8.3,2.18-12.49.16-1.07-.69-2.29-1.08-3.44l4.21,0c1.89.85,3.88.32,5.83.42,1.66.09,3.33,0,5,.06.86,1,.71,2.15.54,3.31-2.46,16.23-4.57,32.51-6.94,48.76-.86,5.91-1.48,11.86-2.45,17.76-.19,1.16,0,2.66-1.9,2.69C189.63,492.37,188,490.58,186.4,488.78Z"/><path class="cls-52" d="M191.24,494.16c2-1.24,1.18-3.47,1.46-5.13,1.34-8.13,2.25-16.32,3.39-24.48,1.36-9.65,2.83-19.28,4.18-28.93.65-4.65,1.15-9.32,1.72-14,5.3-.73,7.76,3.36,10.82,6.42.38,4-1,7.76-1.53,11.64-2.81,20.55-5.71,41.1-8.55,61.65a32.88,32.88,0,0,1-.64,3.7c-.23.91-.37,2-1.73,2l-4.83-7C194.49,497.81,192.2,496.47,191.24,494.16Z"/><path class="cls-26" d="M206.29,579c1.48.57,1.45-.69,1.56-1.44,1.12-7.63,2.19-15.27,3.27-22.91,1.19-8.43,2.4-16.86,3.56-25.29s2.27-17.06,3.43-25.58c.91-6.68,1.87-13.35,2.82-20,1-7.2,1.92-14.42,3.12-21.58.86-5.12.72-10.42,2.72-15.34l4.76,2.88c-2,10-2.76,20.19-4.38,30.25-1.24,7.7-2.3,15.43-3.36,23.14-.87,6.31-2.22,12.57-2.55,19-.18,3.7-1.19,7.35-1.69,11-.9,6.49-1.67,13-2.53,19.5q-1.4,10.41-2.88,20.81c-.8,5.61-1.66,11.22-2.48,16.83-.2,1.4-.24,2.86-1.58,3.78-1-.55-1.07-1.55-1.28-2.51-.7-3.3-1.66-6.53-2.49-9.79A5.9,5.9,0,0,0,206.29,579Z"/><path class="cls-53" d="M200.36,507.05c2.06-2.93,1.52-6.46,2.1-9.71,1-5.84,1.66-11.74,2.46-17.62.82-6.06,1.65-12.11,2.43-18.17.51-3.95,1.37-7.84,1.75-11.83a118.2,118.2,0,0,1,2.11-14.16c.55-2.5-.06-5.26,1.59-7.5a39.51,39.51,0,0,1,6.45,9.53c-1,7-2,14-3,21.07-1,7.47-2,14.95-3,22.41-.92,6.68-2,13.33-2.9,20-1,7.46-2,14.94-3,22.41-.48,3.51-1.06,7-1.59,10.52-.92,6-1.37,12-2.68,17.89a6.09,6.09,0,0,1-1.09,2.94c0-2,0-3.94,0-5.91.63-.81-.1-1.88.52-2.69a85,85,0,0,1,1.59-13.39,46.58,46.58,0,0,0,0-14.53C203.44,514.38,201.64,510.8,200.36,507.05Z"/><path class="cls-54" d="M519.39,463.51l-26.84-.05c-.89-1.1-.36-2.26,0-3.31,4.61-13.52,9.05-27.09,13.58-40.63,4-12,8.08-24,12-36.07.61-1.85,1-3.8,2.33-5.36l17.73,0c1,1.1.85,2.5.86,3.82,0,10.92.05,21.84,0,32.75-.19,8.77.14,17.55-.11,26.31-.27,9.2-4.29,16.29-12.56,20.72C524.13,462.62,522,464.08,519.39,463.51Z"/><path class="cls-55" d="M520.47,378.09c-1.35,5.62-3.49,11-5.28,16.48-2.34,7.19-4.73,14.35-7.12,21.52-2.65,7.92-5.44,15.81-8,23.78s-5.59,15.55-7.56,23.59H471.06c-.9-1.12-.26-2.24.08-3.31,2.36-7.4,4.88-14.76,7.34-22.13,2.52-7.55,5-15.11,7.57-22.63,3.49-10.13,6.66-20.36,10.25-30.46.43-1.18.67-2.41,1-3.61a5.19,5.19,0,0,1,2.21-3.23Z"/><path class="cls-56" d="M499.54,378.09c-1.92,3-2.5,6.48-3.58,9.73q-5.26,15.92-10.66,31.78C481.39,431,477.7,442.55,474,454c-1,3.12-2.39,6.14-2.89,9.42H448c-.54-1.28.06-2.41.49-3.55a31.48,31.48,0,0,0,2.21-8.36c2.26-.9,4.8-1,6.7-2.94a9.36,9.36,0,0,0,1-12.14c-.61-.83-1.64-1.44-1.46-2.71.61-1.38,1.08-2.82,1.81-4.14.51-.95,1.31-1.65,2.12-.2a1.78,1.78,0,0,0,1.65,1.13c3.52-.14,7.07.48,10.56-.35a1.43,1.43,0,0,0,0-2.12c-3.19-.75-6.41-.19-9.6-.32-3.53-.14-4-.62-2.92-4,3-9.43,6.25-18.81,9.37-28.22,1.71-5.17,3.47-10.32,5.14-15.51a5,5,0,0,1,.87-1.92Z"/><path class="cls-57" d="M474.26,430.73c-1.5,1.17-3.23.46-4.84.56-2.21.13-4.43,0-6.64,0-1.59,0-3.06,0-2.26-2.81-2.12,1.78-1.41,4.47-3.43,5.48-.93.43-1.73-.12-2.57-.37-5.06-1.5-9.74.71-11.31,5.38a9.58,9.58,0,0,0,5.6,11.87c.65.25,1.44.24,1.84,1,.44.47,1.12.69.74,1.69-1.22,3.28-2.28,6.62-3.4,9.93h-21.5c1.81-5.62,3.63-11.25,5.56-17.25,1.44,1.49.2,3.07,1.5,3.87,1.31-1.1,2.89-.73,4.37-.76s2.24-.69,2.27-2.26-.34-3.07.75-4.38c-1.67-1.3-3.6-.45-5.4-.59-1.4-.1-2.12,0-1.47-1.92,3.4-9.93,6.59-19.93,9.92-29.88,3.22-9.62,6.53-19.21,9.78-28.81a7.46,7.46,0,0,0,.64-3.39h21.48c.39,2.72-1.11,5-1.88,7.41-3.24,10.05-6.71,20-10.07,30-1,3.11-2,6.26-3,9.35-.54,1.57-.37,2.26,1.53,2.18,3.12-.13,6.24-.05,9.36,0,.85,0,1.82-.33,2.47.58-2.69,1.47-5.59.46-8.38.76-1.25.13-2.62-.31-3.92.8,1.31,1.11,2.68.66,3.93.8C468.68,430.27,471.58,429.25,474.26,430.73Z"/><path class="cls-58" d="M538.19,361V350.22c-.94-1.05-.74-2.35-.7-3.57.25-9-2.94-16.32-10.77-21.27a3.07,3.07,0,0,1-1.39-1.56,55.08,55.08,0,0,1-.09-11.48c.4-4.62,2.9-8.16,6.39-11.06a2.24,2.24,0,0,1,2.19-.68c1,.78,1.11,2,1.43,3.09q11.09,38.13,22.14,76.25c.43,1.48,1.31,2.73,1.82,4.16.53,7.84.16,15.68.23,23.52-.06,4.59.08,9.18,0,13.77a10,10,0,0,1-.33,3.4c-1.11,1.58-1.62.16-2-.52a18.91,18.91,0,0,1-1.9-5c-5.44-19.23-11.26-38.35-16.6-57.61A2.17,2.17,0,0,0,538.19,361Z"/><path class="cls-59" d="M538.19,361c1.48,1.1,1.69,2.84,2.15,4.42q4,13.65,8,27.33c2.74,9.45,5.43,18.92,8.19,28.36a10.85,10.85,0,0,0,2,4.34c1.17,1,1,2.45,1,3.76,0,8.85,0,17.71,0,26.56-.19,4,.1,8-.05,12-.08,2.31-.2,4.63-1.92,6.46-1.45.68-1.91-.42-2.33-1.39a31.58,31.58,0,0,1-1.57-4.27c-4.67-16.78-9.66-33.46-14.5-50.19a13.15,13.15,0,0,0-.81-3.09q0-18.56-.08-37.1Q538.2,369.54,538.19,361Z"/><path class="cls-60" d="M440.45,350.23c2.43-8.55,5.48-16.9,8.33-25.32.34-1,.54-2.05.8-3.08H477a2.29,2.29,0,0,1,.29,2.51c-2.88,8.12-5.44,16.35-8.24,24.5a2.63,2.63,0,0,1-1.19,1.39Z"/><path class="cls-61" d="M500.07,321.83l19.33-.05c2.24-.26,4.32-.06,5.69,2.09-.12,2.72-1.5,5.07-2.26,7.61-1.67,5.52-3.72,10.92-5.4,16.43a5.18,5.18,0,0,1-1.26,2.32h-24.7a2.12,2.12,0,0,1-.36-2.25c2.93-8.56,5.72-17.16,8.63-25.73A1.42,1.42,0,0,1,500.07,321.83Z"/><path class="cls-62" d="M500.07,321.83c-.31,4.51-2.54,8.46-3.72,12.71-1.47,5.28-3.82,10.28-4.88,15.69H467.83c1.79-5.54,3.38-11.15,5.45-16.58,1.1-2.88,1.55-6,3.05-8.72a5.13,5.13,0,0,0,.64-3.1Z"/><path class="cls-63" d="M516.17,350.23c.73-4.47,2.67-8.57,3.91-12.89,1.31-4.58,3.11-9,4.7-13.5a.7.7,0,0,1,1,0c6.65,3.93,11.08,9.48,12.13,17.27a82.89,82.89,0,0,1,.27,9.07Z"/><path class="cls-42" d="M206.31,581.75c2.26,2.76,2.14,6.31,3.15,9.48a26.71,26.71,0,0,1,.62,2.82l.09,1.1a5.21,5.21,0,0,1,0,2.63c0,3-1.39,5.68-1.73,8.58-.58,4.84-2.44,9.43-2.75,14.33-.25,3.88-.06,7.75,0,11.62A35.06,35.06,0,0,0,207.85,643a32.68,32.68,0,0,0,2.72,9.06,35.64,35.64,0,0,0,5.14,11.33c.89,2.59,2.52,3.78,5.42,3.37a65.82,65.82,0,0,1,7.17-.23l.71.25q-6,16.74-12,33.49c-4.79-3.57-9.59-7.12-15.36-9a13.26,13.26,0,0,1-2.27-1.3,133.17,133.17,0,0,1-22-13.93l-9.79-9c9.15-17,16.88-34.65,24.74-52.25C197.17,603.84,202.08,592.94,206.31,581.75Z"/><path class="cls-50" d="M202.52,546.24c-.12.91.36,1.93-.52,2.69C202.11,548,201.65,547,202.52,546.24Z"/><path class="cls-64" d="M368.49,451.79c-4.27.61-8.07-3.5-7.66-7.89.39-4.08.05-8.22.1-12.34a6.75,6.75,0,0,1,13.49,0c0,5.1,0,10.2,0,15.3C373.2,449.44,371.52,451.44,368.49,451.79Z"/><path class="cls-65" d="M380.28,439.27c0-4.12-.43-3.65,3.78-3.64s3.69-.49,3.69,4c0,4.09.41,3.48-4.18,3.52C380.28,443.17,380.28,443.14,380.28,439.27Z"/><path class="cls-66" d="M399.32,439.92c-1.69,0-3.38,0-5.08,0-1.15,0-1.57-.52-1.57-1.63s.38-1.65,1.55-1.64q5.2,0,10.43,0c1.25,0,1.43.74,1.42,1.75s-.35,1.52-1.4,1.51C402.89,439.91,401.11,439.92,399.32,439.92Z"/><path class="cls-66" d="M399.27,430.8c-1.69,0-3.39,0-5.08,0-1.18,0-1.52-.6-1.52-1.67s.47-1.61,1.6-1.6q5.09,0,10.16,0c1.1,0,1.63.38,1.65,1.55s-.47,1.77-1.73,1.73C402.66,430.76,401,430.8,399.27,430.8Z"/><path class="cls-67" d="M340.55,443.28a10,10,0,0,1-6.89-11.86,9.54,9.54,0,0,1,11.08-7.22c.53.09,1.06.13,1.58.19,3.91,2.12,6.31,5.13,6.14,9.83C352.23,440.37,347.12,444.3,340.55,443.28Z"/><path class="cls-67" d="M349.87,452.26c-1.43,0-2.86,0-4.28,0s-2.38.2-2.41-1.82,1-2.05,2.48-2c3.12.05,6.25.08,9.37,0,1.58-.05,1.65.78,1.68,2s-.26,2-1.76,1.89C353.26,452.17,351.56,452.26,349.87,452.26Z"/><path class="cls-66" d="M416,448a7,7,0,0,1-6.89-4.29c-1.29-2.69-.59-5.24,1.34-7.36,3.07-3.37,6.21-6.66,9.4-9.91,2.82-2.89,6.82-3.24,9.62-1,3.21,2.6,3.77,6.43,1.19,10-3.06,4.21-7.05,7.59-10.79,11.15A4.67,4.67,0,0,1,416,448Z"/><path class="cls-68" d="M440.94,442.68c0,1.86-.08,3.71,0,5.56.06,1.36-.44,1.91-1.83,1.85-1.84-.08-3.7,0-5.55,0a2.48,2.48,0,0,1,0-.27C433.61,441.08,431.67,442.55,440.94,442.68Z"/><path class="cls-69" d="M266.42,263.24a1.36,1.36,0,0,1,0,.45h-4v-.45Z"/><path class="cls-42" d="M329.8,433.46h-6.94c-.63-2.17-.14-4.39-.28-6.58,0-.74.28-1.19,1.07-1.19a4.87,4.87,0,0,0,.54,0C330.26,425.24,331,426.3,329.8,433.46Z"/><path class="cls-13" d="M329.8,433.46c0-.89.05-1.78.06-2.67,0-5.27,0-5.21-5.27-4.9-1.44.09-1.85.65-1.8,2,.07,1.87,0,3.74.07,5.61-1.23-2.26-.34-4.68-.51-7a.94.94,0,0,1,1-1c2,0,3.91,0,5.87,0a.94.94,0,0,1,1,1C330.13,428.78,331,431.19,329.8,433.46Z"/><path class="cls-70" d="M303.46,439.35c-1.81-1.07-2-2.12,0-3.16C303.48,437.24,303.47,438.29,303.46,439.35Z"/><path class="cls-26" d="M205.7,632.31c-2-8.95-.74-17.56,2.71-25.95a44.2,44.2,0,0,1-.26,9.69C207.47,621.49,206.06,626.82,205.7,632.31Z"/><path class="cls-26" d="M210.14,597.78l0-2.63A2.05,2.05,0,0,1,210.14,597.78Z"/><path class="cls-71" d="M167.49,422.78l-.56-.44c.16-.17.3-.42.49-.48s.34.21.51.33Z"/><path class="cls-72" d="M519.39,463.51l6.41-2.1c1.36,1.64.7,3.6.75,5.41a16.83,16.83,0,0,0,2.94,9.85,15.57,15.57,0,0,0,16.59,6c1.29-.32,2.53-.95,3.92-.79,1.52.43,2,1.72,2.34,3,4.57,15.81,9.28,31.58,13.88,47.39a19.51,19.51,0,0,0,1.5,4.27,25,25,0,0,1-16.71,11c-16.76,3-31.56-8.75-31.6-24.83C519.35,503,519.39,483.25,519.39,463.51Z"/><path class="cls-73" d="M531.2,254.06c2.26-2.36,5.35-3,8.3-3.83a19.14,19.14,0,0,1,12.13.09c-.91,2.73.58,5.08,1.27,7.51,3.38,11.95,6.8,23.88,10.39,35.77,2.61,8.63,4.82,17.39,7.75,25.92a29.07,29.07,0,0,1,1.25,5.21v56.4c-.06,1.27-.77,1-1.41.52a5.38,5.38,0,0,1-1.76-3.24c-2.32-8.26-4.79-16.49-7.25-24.71-1.13-3.74-1.71-7.69-3.73-11.14-.58-2.38-.29-4.8-.3-7.2-.05-6.24,0-12.48,0-18.72,0-9.64-3.68-14.58-13-17.43a3.76,3.76,0,0,1-1.53-1c-2.55-5.05-3.52-10.64-5.13-16-2.42-8.1-4.88-16.2-7.13-24.36C530.72,256.59,530.18,255.3,531.2,254.06Z"/><path class="cls-74" d="M572,381.9v-58a19.91,19.91,0,0,1-.87-6.32q0-20.19,0-40.39c0-1.31-.19-2.71.88-3.79.84.81.51,1.86.51,2.8q0,116.61-.14,233.22c0,6.08.27,12.29-.87,18.38-.61,3.24-2.62,5.82-3.82,8.78-1.81-.45-1.68-2.16-2.06-3.42-3.33-11.24-6.57-22.51-9.85-33.78-1.39-4.77-2.81-9.55-4.17-14.33-.32-1.15-.6-2.25-1.8-2.79a1.22,1.22,0,0,1,.53-1.16c2.87-1.63,4.55-4.39,6.58-6.83a11.3,11.3,0,0,0,1.64-6.56c.06-3.89.07-7.78.1-11.67,1.54,0,1.74,1.34,2.23,2.32,1.53,3.06,2.16,6.44,3.06,9.68,2.31,8.35,4.95,16.59,7.25,25,0-15.42,0-30.76,0-46.11-.24-20.15,0-40.3-.09-60.45C571.16,384.94,570.8,383.25,572,381.9Z"/><path class="cls-75" d="M531.2,254.06c.28,4.22,2,8.08,3.09,12.08,2.51,9,5.12,17.94,7.7,26.9.49,1.7,1.58,3.22,1.57,5.07a59.33,59.33,0,0,1-9.72,2.52,15.54,15.54,0,0,0-8,13.63c-.1,3.2-.05,6.41-.07,9.62l-1,0c-1.5-1.46-3.69-1.1-5.38-2.06,0-16.09-.29-32.19.11-48.28C519.72,265.15,523.71,258.38,531.2,254.06Z"/><path class="cls-76" d="M572,273.4l0,50.5c-1.55-2.23-2.07-4.9-2.82-7.41-3.31-11-6.35-22-9.55-33-2.93-10.06-6-20.09-8.9-30.15-.32-1.09-1.6-2.65.88-3C562.36,252.08,571.72,262.67,572,273.4Z"/><path class="cls-2" d="M542,643.44a3.18,3.18,0,0,1,3.76,0Z"/><path class="cls-77" d="M505.84,169.83c2.48-.48,3.88.73,4.39,3A4.09,4.09,0,0,1,507,178c-1.93.38-3.71,0-4.24-2.39a32.54,32.54,0,0,1,2.94-2.7C507.08,171.91,507.11,171,505.84,169.83Z"/><path class="cls-78" d="M197.23,424.3c.32-.21.5-.41.71-.45s.57,0,.48.36a.85.85,0,0,1-.53.5C197.74,424.75,197.52,424.5,197.23,424.3Z"/><path class="cls-4" d="M557,474.27c-1.15,3.75-4.14,5.86-7.11,8-6.63,2.68-12.89,2.37-18.47-2.46a15.61,15.61,0,0,1-5.53-12.25c0-2.05,0-4.1,0-6.14,6.66-3.94,11.06-9.5,12.14-17.3a56.45,56.45,0,0,0,.24-7.48c.06-7.14.07-14.28.1-21.41,2.27,2.91,2.58,6.57,3.59,9.93,3.68,12.19,7.16,24.45,10.74,36.68,1,3.41,1.56,6.95,3,10.23C556,472.86,555.94,473.87,557,474.27Z"/><path class="cls-67" d="M450.65,451.84c-4.29-.24-6.72-2.92-8.14-6.59a9.36,9.36,0,0,1,2.89-10.68,9,9,0,0,1,10.26-1.27l1.43.7c5.94,5.16,4.28,12.48.46,15.57A10.54,10.54,0,0,1,450.65,451.84Z"/><path class="cls-79" d="M474.26,430.73c-3.84,0-7.69,0-11.53.12-1.31,0-2-.35-2-1.81s.86-1.55,2-1.54c3.84.05,7.68.08,11.53.11Z"/><path class="cls-80" d="M572,381.9q0,32.76,0,65.52c-2.27-.27-2.28-2.31-2.7-3.78-1.61-5.66-3.25-11.32-5-17-1.93-6.31-3.65-12.69-5.66-19l-.18-24.19a10.81,10.81,0,0,1-.79-4.46c0-9.74,0-19.49,0-29.23.5-2.35-.84-4.94,1-7.12,1.2.73,1.42,2,1.76,3.2,3,10.49,6,21,9.11,31.47C570,379,570.11,381,572,381.9Z"/><path class="cls-81" d="M558.51,349.67v33.84c-2.24-1.92-2.17-4.82-2.92-7.3q-6.74-22.35-13.15-44.79c-3-10.24-5.74-20.53-8.6-30.79,2.92-2.06,6.3-2.37,9.72-2.52l1.18.51a3.28,3.28,0,0,0-.48,2.78c4.84,16,9.11,32.11,14.14,48C558.51,349.77,558.38,349.34,558.51,349.67Z"/><path class="cls-82" d="M558.69,407.7c1.47,1,1.59,2.69,2,4.2q5.07,16.92,10.11,33.86c.22.71.43,1.36,1.18,1.66v47.77c-1.1.22-1.41-.51-1.53-1.15-1.65-8.3-4.82-16.17-6.85-24.38a58.83,58.83,0,0,0-3.91-12.16c-.28-.57-.45-1.15-1-1.46l-.18-30.63Z"/><path class="cls-83" d="M371.14,438.36c0,2,0,3.93,0,5.89s-1,3.45-3.1,3.68a3,3,0,0,1-3.64-3,64.9,64.9,0,0,1,.19-13.58,2.85,2.85,0,0,1,3.33-2.68,3.17,3.17,0,0,1,3.2,3.29c.11,2.14,0,4.28,0,6.42Z"/><path class="cls-84" d="M348.78,433.74a5.81,5.81,0,1,1-5.88-6.06A6,6,0,0,1,348.78,433.74Z"/><path class="cls-85" d="M415.67,444.21a3.24,3.24,0,0,1-2.58-5.24,72.05,72.05,0,0,1,10.51-10.66c1.4-1.2,3-.53,4.24.84a2.88,2.88,0,0,1,0,4.14c-3.29,3.53-6.76,6.89-10.16,10.31A2.44,2.44,0,0,1,415.67,444.21Z"/><path class="cls-86" d="M558.51,349.67c-2.48-2.25-2.59-5.56-3.46-8.43-4-13.25-7.72-26.58-11.56-39.87-.39-1.35-1.08-2.71,1.25-2.75,7.63.7,13.77,7.61,13.85,15.74.08,9.45.07,18.9.1,28.34Z"/><path class="cls-87" d="M457.27,442.28a5.82,5.82,0,1,1-5.63-6.19A5.76,5.76,0,0,1,457.27,442.28Z"/></svg>